HIERARCHY
ROOT Hips
{
	OFFSET -0.001795 -0.223333 0.028219
	CHANNELS 6 Xposition Yposition Zposition Zrotation Yrotation Xrotation 
	JOINT LeftUpLeg
	{
		OFFSET 0.069520 -0.091406 -0.006815
		CHANNELS 3 Zrotation Yrotation Xrotation
		JOINT LeftLeg
		{
			OFFSET 0.034277 -0.375199 -0.004496
			CHANNELS 3 Zrotation Yrotation Xrotation
			JOINT LeftFoot
			{
				OFFSET -0.013596 -0.397961 -0.043693
				CHANNELS 3 Zrotation Yrotation Xrotation
				JOINT LeftToe
				{
					OFFSET 0.026358 -0.055791 0.119288
					CHANNELS 3 Zrotation Yrotation Xrotation
					End Site
					{
						OFFSET 0.000000 0.000000 0.000000
					}
				}
			}
		}
	}
	JOINT RightUpLeg
	{
		OFFSET -0.067670 -0.090522 -0.004320
		CHANNELS 3 Zrotation Yrotation Xrotation
		JOINT RightLeg
		{
			OFFSET -0.038290 -0.382569 -0.008850
			CHANNELS 3 Zrotation Yrotation Xrotation
			JOINT RightFoot
			{
				OFFSET 0.015774 -0.398415 -0.042312
				CHANNELS 3 Zrotation Yrotation Xrotation
				JOINT RightToe
				{
					OFFSET -0.025372 -0.048144 0.123348
					CHANNELS 3 Zrotation Yrotation Xrotation
					End Site
					{
						OFFSET 0.000000 0.000000 0.000000
					}
				}
			}
		}
	}
	JOINT Spine
	{
		OFFSET -0.002533 0.108963 -0.026696
		CHANNELS 3 Zrotation Yrotation Xrotation
		JOINT Spine1
		{
			OFFSET 0.005487 0.135180 0.001092
			CHANNELS 3 Zrotation Yrotation Xrotation
			JOINT Spine2
			{
				OFFSET 0.001457 0.052922 0.025425
				CHANNELS 3 Zrotation Yrotation Xrotation
				JOINT Neck
				{
					OFFSET -0.002778 0.213870 -0.042857
					CHANNELS 3 Zrotation Yrotation Xrotation
					JOINT Head
					{
						OFFSET 0.005152 0.064970 0.051349
						CHANNELS 3 Zrotation Yrotation Xrotation
						End Site
						{
							OFFSET 0.000000 0.000000 0.000000
						}
					}
				}
				JOINT LeftShoulder
				{
					OFFSET 0.078845 0.121749 -0.034090
					CHANNELS 3 Zrotation Yrotation Xrotation
					JOINT LeftArm
					{
						OFFSET 0.090977 0.030469 -0.008868
						CHANNELS 3 Zrotation Yrotation Xrotation
						JOINT LeftForeArm
						{
							OFFSET 0.259612 -0.012772 -0.027456
							CHANNELS 3 Zrotation Yrotation Xrotation
							JOINT LeftHand
							{
								OFFSET 0.249234 0.008986 -0.001171
								CHANNELS 3 Zrotation Yrotation Xrotation
								End Site
								{
									OFFSET 0.000000 0.000000 0.000000
								}
							}
						}
					}
				}
				JOINT RightShoulder
				{
					OFFSET -0.081759 0.118833 -0.038615
					CHANNELS 3 Zrotation Yrotation Xrotation
					JOINT RightArm
					{
						OFFSET -0.096012 0.032551 -0.009143
						CHANNELS 3 Zrotation Yrotation Xrotation
						JOINT RightForeArm
						{
							OFFSET -0.253742 -0.013329 -0.021401
							CHANNELS 3 Zrotation Yrotation Xrotation
							JOINT RightHand
							{
								OFFSET -0.255298 0.007772 -0.005559
								CHANNELS 3 Zrotation Yrotation Xrotation
								End Site
								{
									OFFSET 0.000000 0.000000 0.000000
								}
							}
						}
					}
				}
			}
		}
	}
}
MOTION
Frames: 18
Frame Time: 0.050000
-0.138159 0.940224 0.943346 1.573397 1.526588 2.582666 2.119838 0.168046 2.990917 -4.379609 0.434116 -5.596317 -0.301370 2.886805 8.075677 0.000000 0.000000 0.000000 0.131200 0.838729 -8.353351 -1.152674 0.519525 8.177982 2.366954 3.572876 4.207179 0.000000 0.000000 0.000000 8.341589 -0.383304 1.987917 10.690310 -6.099948 6.325575 -8.438812 -1.227003 6.248872 16.588255 -10.590181 -10.338863 0.000000 0.000000 0.000000 -19.290467 -26.390324 12.491882 -24.597672 -25.491227 1.483249 33.050036 -40.221835 -10.688073 0.000000 0.000000 0.000000 24.498710 2.569050 -0.418916 49.619301 -2.994961 -6.120156 -3.426530 32.337391 0.288570 0.000000 0.000000 0.000000 
-0.138146 0.940159 0.942367 1.520369 1.186614 2.575709 2.118734 0.154446 2.769371 -4.352925 0.437953 -5.249093 -0.096468 3.177212 7.951503 0.000000 0.000000 0.000000 0.061188 0.865584 -8.652998 -0.958824 0.504040 8.537193 2.503858 3.842525 4.261269 0.000000 0.000000 0.000000 8.380885 -0.400390 2.140677 10.923884 -6.250896 6.555127 -8.547142 -1.376850 5.857027 16.481747 -10.562804 -10.107160 0.000000 0.000000 0.000000 -19.361539 -26.317079 12.531311 -24.033244 -26.094379 1.524186 32.313021 -38.567183 -9.915284 0.000000 0.000000 0.000000 24.480275 2.545663 -0.533531 49.600504 -3.422067 -6.227598 -3.068694 32.861657 0.363713 0.000000 0.000000 0.000000 
-0.138043 0.939987 0.941446 1.510985 0.732726 2.567008 2.052640 0.154004 2.682088 -4.329577 0.442249 -5.107207 0.139329 3.534646 7.878288 0.000000 0.000000 0.000000 -0.010590 0.885692 -8.885336 -0.867871 0.502357 8.770634 2.673500 4.213262 4.259153 0.000000 0.000000 0.000000 8.480915 -0.423468 2.329014 10.960365 -6.251585 6.574153 -8.622503 -1.413670 5.639160 16.367722 -10.489609 -10.061755 0.000000 0.000000 0.000000 -19.362053 -26.316816 12.589245 -23.686644 -26.415003 1.533390 32.052494 -37.951227 -9.632987 0.000000 0.000000 0.000000 24.638037 2.391830 -0.716125 49.428908 -3.766743 -6.305565 -2.646978 33.200863 0.464330 0.000000 0.000000 0.000000 
-0.137877 0.939861 0.940659 1.466141 0.268675 2.590851 1.977323 0.149450 2.540855 -4.230068 0.441552 -4.917575 0.391963 3.917245 7.787567 0.000000 0.000000 0.000000 -0.187334 0.901955 -9.132232 -0.528821 0.453254 8.972508 2.868696 4.603296 4.326175 0.000000 0.000000 0.000000 8.660792 -0.442148 2.445104 10.993831 -6.279765 6.772325 -8.706392 -1.473019 5.308399 16.047161 -10.233569 -10.111878 0.000000 0.000000 0.000000 -19.628146 -26.052655 12.550825 -23.725725 -26.610614 1.574245 32.251974 -37.753472 -9.624803 0.000000 0.000000 0.000000 24.798003 2.349010 -0.846382 49.143690 -4.058806 -6.327687 -2.091829 33.533213 0.598090 0.000000 0.000000 0.000000 
-0.137662 0.939594 0.939989 1.486992 -0.208182 2.559219 1.910332 0.148271 2.449687 -4.278733 0.450645 -4.690351 0.640918 4.288883 7.678793 0.000000 0.000000 0.000000 -0.288058 0.912719 -9.283892 -0.455887 0.452232 9.134458 3.038808 5.003672 4.275207 0.000000 0.000000 0.000000 8.727883 -0.457637 2.584689 10.876526 -6.196453 6.810379 -8.685590 -1.418726 5.316153 16.009758 -10.198602 -10.181091 0.000000 0.000000 0.000000 -19.808526 -25.870551 12.530191 -24.124064 -26.584912 1.609635 32.907436 -38.555314 -10.070008 0.000000 0.000000 0.000000 24.824101 2.318107 -0.923221 49.176975 -4.294844 -6.414627 -1.685782 34.002851 0.709951 0.000000 0.000000 0.000000 
-0.137468 0.939489 0.939455 1.488097 -0.628103 2.603860 1.939351 0.147178 2.422828 -4.444816 0.466297 -4.722847 0.825493 4.596929 7.709629 0.000000 0.000000 0.000000 -0.357352 0.918837 -9.373295 -0.396887 0.442237 9.056724 3.210021 5.358876 4.311655 0.000000 0.000000 0.000000 8.795833 -0.462520 2.612018 10.779476 -6.155521 7.037074 -8.828230 -1.266675 5.090386 15.769743 -10.100379 -9.868963 0.000000 0.000000 0.000000 -19.952116 -25.921229 12.579061 -24.800215 -26.114116 1.625991 33.885193 -39.785251 -10.790447 0.000000 0.000000 0.000000 24.970005 2.276442 -0.966495 49.091846 -4.771489 -6.566570 -1.149692 34.800249 0.880431 0.000000 0.000000 0.000000 
-0.137350 0.939433 0.939053 1.517944 -0.953728 2.547569 1.979260 0.141271 2.336079 -4.652979 0.486462 -4.454597 0.978963 4.837811 7.678108 0.000000 0.000000 0.000000 -0.374376 0.922361 -9.411256 -0.463597 0.461158 9.123949 3.330496 5.629864 4.298393 0.000000 0.000000 0.000000 8.869875 -0.482333 2.787198 10.693458 -6.111452 7.167894 -8.972815 -1.211246 5.025887 15.555453 -9.913407 -10.004088 0.000000 0.000000 0.000000 -20.310169 -25.760288 12.566869 -25.338593 -25.631425 1.604200 34.661515 -41.282744 -11.537279 0.000000 0.000000 0.000000 25.004352 2.109879 -1.093045 49.322706 -5.090649 -6.715909 -0.788237 35.729802 1.010411 0.000000 0.000000 0.000000 
-0.137297 0.939357 0.938661 1.604088 -1.139392 2.533483 2.054790 0.133842 2.259780 -4.996646 0.514797 -4.311136 1.046507 4.952059 7.704483 0.000000 0.000000 0.000000 -0.430284 0.928231 -9.497227 -0.552208 0.484160 9.222026 3.383901 5.776760 4.248067 0.000000 0.000000 0.000000 8.847610 -0.490082 2.874370 10.707221 -6.122020 7.253787 -9.182669 -1.119090 4.937996 15.429417 -9.843173 -9.905194 0.000000 0.000000 0.000000 -20.561638 -25.787038 12.607200 -25.986099 -25.295644 1.629252 35.267092 -42.582592 -12.192924 0.000000 0.000000 0.000000 24.726855 1.980727 -1.129819 49.689218 -5.491243 -6.926444 -0.173709 37.226302 1.259022 0.000000 0.000000 0.000000 
-0.137330 0.939147 0.938071 1.643581 -1.390314 2.559494 2.051696 0.122423 2.090135 -5.116252 0.529033 -4.092120 1.181598 5.154604 7.637737 0.000000 0.000000 0.000000 -0.440020 0.927255 -9.486556 -0.630381 0.491857 9.031719 3.470753 5.995110 4.205844 0.000000 0.000000 0.000000 8.823426 -0.491667 2.904263 10.765557 -6.180920 7.523714 -9.428833 -1.162717 4.817389 15.383297 -9.865397 -9.677319 0.000000 0.000000 0.000000 -21.079342 -25.918195 12.811843 -26.359978 -24.835810 1.585190 35.306769 -43.496138 -12.487111 0.000000 0.000000 0.000000 24.547076 2.184747 -1.026563 50.051743 -5.520859 -6.974761 0.257049 38.326957 1.431615 0.000000 0.000000 0.000000 
-0.137465 0.938967 0.937143 1.602127 -1.437554 2.486533 2.151202 0.124008 2.148420 -5.204718 0.535953 -4.148285 1.205222 5.183177 7.601921 0.000000 0.000000 0.000000 -0.496893 0.915713 -9.396777 -0.433200 0.449759 8.894123 3.503975 6.056604 4.227066 0.000000 0.000000 0.000000 8.783684 -0.509505 3.092347 10.806469 -6.203320 7.525851 -9.663958 -1.075142 4.786593 15.357869 -9.840179 -9.681876 0.000000 0.000000 0.000000 -21.339903 -26.267153 13.029133 -26.508559 -24.906978 1.629004 34.798491 -43.780499 -12.379366 0.000000 0.000000 0.000000 24.580896 2.411322 -0.851557 50.168894 -5.422201 -6.961917 0.173599 39.209818 1.454375 0.000000 0.000000 0.000000 
-0.137624 0.938904 0.935807 1.606989 -1.541604 2.526524 2.089320 0.122445 2.094898 -5.108114 0.528503 -4.272608 1.255893 5.276700 7.637008 0.000000 0.000000 0.000000 -0.500691 0.926115 -9.502754 -0.425206 0.445956 8.823478 3.553867 6.134224 4.279007 0.000000 0.000000 0.000000 8.613730 -0.514811 3.194272 10.871663 -6.249298 7.635141 -9.910940 -1.086130 4.730709 15.158541 -9.851491 -9.103720 0.000000 0.000000 0.000000 -21.587527 -26.815237 13.409784 -26.103675 -25.243427 1.651131 34.109228 -43.254121 -11.929490 0.000000 0.000000 0.000000 24.546883 2.708957 -0.668460 50.302310 -5.158700 -6.873535 0.190163 39.996969 1.493984 0.000000 0.000000 0.000000 
-0.137757 0.939025 0.934161 1.555516 -1.658204 2.477521 2.007039 0.118172 1.990187 -4.867860 0.512818 -4.165775 1.333467 5.407041 7.632549 0.000000 0.000000 0.000000 -0.268279 0.938611 -9.508114 -0.727941 0.496274 8.714326 3.619892 6.211770 4.384621 0.000000 0.000000 0.000000 8.532598 -0.531828 3.391438 10.832934 -6.246984 7.805455 -10.131179 -1.184978 4.650751 15.084612 -9.977332 -8.434320 0.000000 0.000000 0.000000 -22.043544 -27.344143 13.856666 -25.166224 -25.505616 1.586550 33.492507 -42.263921 -11.373699 0.000000 0.000000 0.000000 24.853673 3.109699 -0.482220 50.020200 -4.918866 -6.721588 0.268469 40.430747 1.525750 0.000000 0.000000 0.000000 
-0.137883 0.939295 0.932338 1.522064 -1.548142 2.439496 2.043592 0.118294 2.013053 -4.827214 0.506738 -4.364470 1.257756 5.320606 7.772263 0.000000 0.000000 0.000000 -0.122177 0.947099 -9.520833 -0.898439 0.520894 8.616099 3.614952 6.098102 4.547745 0.000000 0.000000 0.000000 8.268509 -0.533792 3.520366 10.753049 -6.202810 7.761454 -10.072580 -1.232002 4.742378 14.907783 -9.895057 -8.301294 0.000000 0.000000 0.000000 -21.961420 -27.923679 14.206173 -24.592742 -26.190213 1.633004 33.220686 -40.920430 -10.868342 0.000000 0.000000 0.000000 25.022563 3.501184 -0.257335 50.007405 -4.489537 -6.557741 -0.341232 40.213060 1.305321 0.000000 0.000000 0.000000 
-0.138063 0.939655 0.930595 1.514254 -1.485161 2.361222 1.876960 0.138319 2.198973 -4.480710 0.478557 -4.759715 1.194896 5.273673 7.973131 0.000000 0.000000 0.000000 0.134573 0.940143 -9.326752 -1.316866 0.574014 8.228501 3.636603 6.037588 4.719564 0.000000 0.000000 0.000000 7.977020 -0.533191 3.658235 10.768382 -6.219372 7.779651 -10.021549 -1.122800 4.943105 14.833315 -9.908074 -8.100196 0.000000 0.000000 0.000000 -21.638939 -28.327900 14.350029 -23.714687 -26.843965 1.629262 33.799348 -40.111635 -10.866732 0.000000 0.000000 0.000000 25.099135 3.780351 -0.044506 49.796406 -3.927204 -6.336222 -0.629401 39.447961 1.195853 0.000000 0.000000 0.000000 
-0.138293 0.940027 0.929149 1.283870 -1.362581 2.290896 2.088513 0.144420 2.383487 -4.354205 0.467049 -5.129120 1.112615 5.180621 8.115007 0.000000 0.000000 0.000000 0.362813 0.935795 -9.174263 -1.237116 0.543803 7.944877 3.675738 5.935695 5.027676 0.000000 0.000000 0.000000 7.921984 -0.532215 3.682482 10.738732 -6.237763 7.970409 -9.908706 -0.947428 4.890464 14.845104 -9.940719 -7.987434 0.000000 0.000000 0.000000 -21.450359 -28.613934 14.402719 -23.175399 -27.018676 1.605404 34.616649 -39.988753 -11.170248 0.000000 0.000000 0.000000 25.233401 4.102733 0.224266 49.637056 -3.664730 -6.231746 -0.995966 38.367945 1.059639 0.000000 0.000000 0.000000 
-0.138552 0.940268 0.927980 1.235303 -1.348585 2.231910 2.076723 0.160808 2.592144 -4.203767 0.456121 -5.522973 1.067081 5.155581 8.293825 0.000000 0.000000 0.000000 0.470996 0.912742 -8.905116 -1.307438 0.528327 7.439322 3.732022 5.944019 5.215404 0.000000 0.000000 0.000000 7.736479 -0.529660 3.755935 10.732522 -6.259346 8.128308 -9.921590 -0.597981 4.935240 14.824413 -9.890126 -8.093692 0.000000 0.000000 0.000000 -21.085348 -28.632679 14.210965 -22.777472 -27.011111 1.572250 35.899788 -40.529784 -11.877215 0.000000 0.000000 0.000000 25.200306 4.346753 0.506724 49.675240 -3.366249 -6.159200 -1.465446 37.107807 0.906629 0.000000 0.000000 0.000000 
-0.138789 0.940349 0.927109 1.117576 -1.337742 2.181669 2.261968 0.167903 2.781856 -4.271761 0.459599 -5.858095 1.030253 5.124906 8.402244 0.000000 0.000000 0.000000 0.627162 0.898041 -8.697518 -1.327883 0.511353 7.065778 3.775267 5.950952 5.359286 0.000000 0.000000 0.000000 7.737886 -0.537551 3.840726 10.558352 -6.148295 8.030650 -9.757012 -0.301353 5.016071 14.931034 -9.935363 -8.207905 0.000000 0.000000 0.000000 -20.864415 -28.269302 13.857571 -22.535745 -26.986630 1.547106 36.924132 -41.161712 -12.520761 0.000000 0.000000 0.000000 25.387530 4.027124 0.395822 49.553380 -3.595235 -6.265631 -1.264258 36.204607 0.967462 0.000000 0.000000 0.000000 
-0.138990 0.940272 0.926363 1.110486 -1.196488 2.090205 2.349552 0.175002 2.932112 -4.361518 0.463029 -6.055624 0.942046 4.994395 8.444930 0.000000 0.000000 0.000000 0.717525 0.875081 -8.443939 -1.443058 0.511345 6.731616 3.730978 5.855219 5.363186 0.000000 0.000000 0.000000 7.649486 -0.532508 3.852792 10.614363 -6.199799 8.095152 -9.755109 -0.193322 5.001038 14.984250 -9.876309 -8.542435 0.000000 0.000000 0.000000 -20.991436 -27.980350 13.650458 -22.321087 -26.814765 1.503673 37.802915 -41.770222 -13.104201 0.000000 0.000000 0.000000 25.501450 4.027144 0.449837 49.401239 -3.840034 -6.354842 -0.994718 35.716473 1.045230 0.000000 0.000000 0.000000 
